<svg xmlns="http://www.w3.org/2000/svg" viewBox="0 0 1923 374.92"><defs><style>.cls-1{fill:#393637;}</style></defs><title>资源 8</title><g id="图层_2" data-name="图层 2"><g id="图层_1-2" data-name="图层 1"><path class="cls-1" d="M0,46.07v279.7A44.84,44.84,0,0,0,44.83,370.6a43.55,43.55,0,0,0,5.58-.35l110.83-13.87-4.84-38.62L45.58,331.63a5.89,5.89,0,0,1-6.65-5.86V200.33H153.62V161.4H38.93V46.07a5.92,5.92,0,0,1,5.92-5.91h124.4V1.23H44.85A44.89,44.89,0,0,0,0,46.07Z"/><path class="cls-1" d="M329.85,1.23h-129V40.16h12.4V374.79h38.93V40.16h77.71a5.93,5.93,0,0,1,5.92,5.91V311.7a5.94,5.94,0,0,1-5.92,5.91H298.58v38.93h31.27a44.88,44.88,0,0,0,44.84-44.84V46.07A44.88,44.88,0,0,0,329.85,1.23Z"/><path class="cls-1" d="M483.12,152.57H728.24a44.88,44.88,0,0,0,44.83-44.84V46.07A44.88,44.88,0,0,0,728.24,1.23H483.12a44.89,44.89,0,0,0-44.85,44.84v61.66A44.89,44.89,0,0,0,483.12,152.57ZM477.2,46.07a5.92,5.92,0,0,1,5.92-5.91H728.24a5.91,5.91,0,0,1,5.9,5.91v61.66a5.91,5.91,0,0,1-5.9,5.91H483.12a5.92,5.92,0,0,1-5.92-5.91Z"/><path class="cls-1" d="M549.25,203.89H455.69v-17H416.76V330.08a44.88,44.88,0,0,0,44.84,44.84h81.74a44.89,44.89,0,0,0,44.84-44.84V186.85H549.25ZM543.34,336H461.6a5.92,5.92,0,0,1-5.91-5.91V242.82h93.56v87.26A5.92,5.92,0,0,1,543.34,336Z"/><path class="cls-1" d="M752.43,203.89H658.86v-17H619.93V330.08a44.89,44.89,0,0,0,44.85,44.84h81.73a44.89,44.89,0,0,0,44.85-44.84V186.85H752.43ZM746.51,336H664.78a5.92,5.92,0,0,1-5.92-5.91V242.82h93.57v87.26A5.92,5.92,0,0,1,746.51,336Z"/><path class="cls-1" d="M1163.8,22.16H1041V0h-38.93V22.16H879.27A44.87,44.87,0,0,0,834.44,67v37.78h38.93V67a5.91,5.91,0,0,1,5.9-5.91H1163.8a5.91,5.91,0,0,1,5.9,5.91v37.78h38.93V67A44.87,44.87,0,0,0,1163.8,22.16Z"/><path class="cls-1" d="M1175,195.09a45,45,0,0,0-34-74.31H867.8v38.93h273.13a6.11,6.11,0,0,1,4.49,10l-43.6,50.78c-2,2.3-3.09,5.11-4.54,7.73H833.75v38.92H1091V329.8a5.92,5.92,0,0,1-5.92,5.91H881.19v38.93h203.9a44.9,44.9,0,0,0,44.85-44.84V267.17h78.17V228.25h-61.62Z"/><path class="cls-1" d="M1290.5,330V67a5.94,5.94,0,0,1,5.92-5.91H1625V22.16H1456V0h-38.93V22.16H1296.42A44.88,44.88,0,0,0,1251.58,67V330a44.88,44.88,0,0,0,44.84,44.84h8.79V335.93h-8.79A5.93,5.93,0,0,1,1290.5,330Z"/><path class="cls-1" d="M1625,249.4V210.48H1509V154.4h-38.93v56.08h-94.54a5.93,5.93,0,0,1-5.91-5.91,6.1,6.1,0,0,1,.29-1.87l22.9-68.81H1624V95H1405.74l3.32-10-36.92-12.29L1364.73,95h-50v38.92h37l-18.84,56.57a44.88,44.88,0,0,0,42.58,58.94h94.54v41.8H1314.74v38.93h155.31v44.45H1509V330.13h115V291.2H1509V249.4Z"/><path class="cls-1" d="M1690.29,18.35h99.11V28.48h-43.7V148.66h-10.93V28.48h-44.48Z"/><path class="cls-1" d="M1748.22,151.18h-16V31h-44.48V15.83h104.15V31h-43.7Zm-10.93-5.05h5.89V26h43.69V20.88h-94V26h44.47Z"/><path class="cls-1" d="M1805,18.35h11.69l46,116.25L1908,18.35h12.49V148.66h-10.92V41.75L1869,148.66H1856.5L1815.92,41.75V148.66H1805Z"/><path class="cls-1" d="M1923,151.18h-16V55.51l-36.31,95.67h-16l-.61-1.64-35.7-94v95.67h-16V15.83h15.94l44.31,111.87,43.55-111.87H1923Zm-10.92-5.05H1918V20.88h-8.23l-47,120.62L1815,20.88h-7.46V146.13h5.87V28l44.85,118.14h9L1912.08,28Z"/></g></g></svg>